<svg xmlns="http://www.w3.org/2000/svg" width="1743.87" height="448">
  <defs>
    <clipPath id="a">
      <path d="M239.41 175.34a4 4 0 0 0-6.77-2.16L211.88 194l-16.34-31.11a4 4 0 0 0-7.08 0l-8.93 17-22.4-41.77a4 4 0 0 0-7.48 1.28L128 278l57.9 32.46a12 12 0 0 0 11.7 0L256 278z" fill="none"/>
    </clipPath>
    <linearGradient x1="152.9" y1="230.54" x2="144.9" y2="226.36" gradientUnits="userSpaceOnUse" id="b">
      <stop offset="0" stop-color="#a52714"/>
      <stop offset=".4" stop-color="#a52714" stop-opacity=".5"/>
      <stop offset=".8" stop-color="#a52714" stop-opacity="0"/>
    </linearGradient>
    <linearGradient x1="186.89" y1="218.91" x2="183.31" y2="215.33" gradientUnits="userSpaceOnUse" id="c">
      <stop offset="0" stop-color="#a52714" stop-opacity=".8"/>
      <stop offset=".5" stop-color="#a52714" stop-opacity=".21"/>
      <stop offset="1" stop-color="#a52714" stop-opacity="0"/>
    </linearGradient>
    <linearGradient x1="123.188" y1="168.281" x2="256.875" y2="301.968" gradientUnits="userSpaceOnUse" id="d">
      <stop offset="0" stop-color="#fff" stop-opacity=".1"/>
      <stop offset="1" stop-color="#fff" stop-opacity="0"/>
    </linearGradient>
  </defs>
  <g fill="none">
    <path d="M0 0h1743.87v448H0z"/>
    <g clip-path="url(#a)">
      <path d="M128 278l21.66-138.61a4 4 0 0 1 7.48-1.27l22.4 41.78 8.93-17a4 4 0 0 1 7.08 0L256 278z" fill="#ffa000"/>
      <path d="M202 137l-106-9v192l32-42z" fill="url(#b)" opacity=".12"/>
      <path d="M202.83 224.01l-23.3-44.12L128 278z" fill="#f57c00"/>
      <path d="M96 128h192v192H96z" fill="url(#c)" opacity=".2"/>
      <path d="M256 278l-16.59-102.66a4 4 0 0 0-6.77-2.16L128 278l57.9 32.47a12 12 0 0 0 11.7 0z" fill="#ffca28"/>
      <path d="M239.41 175.34a4 4 0 0 0-6.77-2.16L211.88 194l-16.34-31.11a4 4 0 0 0-7.08 0l-8.93 17-22.4-41.77a4 4 0 0 0-7.48 1.28L128 278h-.08l.07.08.57.28L211.83 195l20.78-20.8a4 4 0 0 1 6.78 2.16l16.45 101.74.16-.1zM128.19 277.81l21.47-137.42a4 4 0 0 1 7.48-1.28l22.4 41.78 8.93-17a4 4 0 0 1 7.08 0l16 30.43z" fill-opacity=".2" fill="#fff"/>
      <path d="M197.6 309.49a12 12 0 0 1-11.7 0l-57.76-32.4-.14.91 57.9 32.46a12 12 0 0 0 11.7 0L256 278l-.15-.92z" fill="#a52714" opacity=".2"/>
      <path d="M239.41 175.34a4 4 0 0 0-6.77-2.16L211.88 194l-16.34-31.11a4 4 0 0 0-7.08 0l-8.93 17-22.4-41.77a4 4 0 0 0-7.48 1.28L128 278l57.9 32.46a12 12 0 0 0 11.7 0L256 278z" fill="url(#d)"/>
    </g>
    <circle cx="240" cy="272" r="40" fill="#757575"/>
    <path d="M248 270c3.32 0 5.98-2.68 5.98-6s-2.66-6-5.98-6c-3.32 0-6 2.68-6 6s2.68 6 6 6zm-16 0c3.32 0 5.98-2.68 5.98-6s-2.66-6-5.98-6c-3.32 0-6 2.68-6 6s2.68 6 6 6zm0 4c-4.66 0-14 2.34-14 7v5h28v-5c0-4.66-9.34-7-14-7zm16 0c-.58 0-1.24.04-1.94.1 2.32 1.68 3.94 3.94 3.94 6.9v5h12v-5c0-4.66-9.34-7-14-7z" fill="#fff" fill-rule="evenodd"/>
    <path d="M347.77 232.7V272H336v-91.65h53.5v11.27h-41.73v30.08h37.63v11zm63.87-39.16c-1.62 1.62-3.58 2.43-5.88 2.43-2.307 0-4.27-.81-5.89-2.43-1.62-1.627-2.43-3.59-2.43-5.89 0-2.307.81-4.27 2.43-5.89s3.583-2.43 5.89-2.43c2.3 0 4.26.81 5.88 2.43 1.627 1.62 2.44 3.583 2.44 5.89 0 2.3-.813 4.263-2.44 5.89zm0 15.74V272h-11.77v-62.72zm25.86 28.42V272h-11.78v-62.72h11.27v10.24h.51c1.193-3.413 3.647-6.23 7.36-8.45 3.713-2.22 7.32-3.33 10.82-3.33 3.493 0 6.437.513 8.83 1.54l-4.48 11.01c-1.54-.6-3.63-.9-6.27-.9-4.267 0-8.043 1.687-11.33 5.06-3.287 3.367-4.93 7.783-4.93 13.25zm59.26 36.35c-9.467 0-17.167-3.157-23.1-9.47-5.933-6.32-8.9-14.3-8.9-23.94 0-9.133 2.88-16.983 8.64-23.55 5.76-6.573 13.12-9.86 22.08-9.86 9.307 0 16.753 3.03 22.34 9.09 5.587 6.06 8.38 14.167 8.38 24.32l-.12 2.18h-49.54c.34 6.313 2.453 11.303 6.34 14.97 3.88 3.673 8.423 5.51 13.63 5.51 8.447 0 14.163-3.587 17.15-10.76l10.5 4.36c-2.053 4.86-5.427 8.933-10.12 12.22-4.693 3.287-10.453 4.93-17.28 4.93zm-19.45-40.96h36.35c-.253-3.587-1.897-7-4.93-10.24-3.027-3.247-7.527-4.87-13.5-4.87-4.353 0-8.13 1.367-11.33 4.1-3.2 2.733-5.397 6.403-6.59 11.01zm91.52 40.96c-4.78 0-9.07-1.023-12.87-3.07-3.793-2.053-6.63-4.613-8.51-7.68h-.51v8.7h-11.26v-91.65h11.77v28.93l-.51 8.7h.51c1.88-3.067 4.717-5.627 8.51-7.68 3.8-2.047 8.09-3.07 12.87-3.07 8.107 0 15.103 3.2 20.99 9.6 5.887 6.4 8.83 14.337 8.83 23.81 0 9.473-2.943 17.41-8.83 23.81-5.887 6.4-12.883 9.6-20.99 9.6zm-1.92-10.75c5.46 0 10.153-2.07 14.08-6.21 3.927-4.14 5.89-9.623 5.89-16.45s-1.963-12.31-5.89-16.45c-3.927-4.14-8.62-6.21-14.08-6.21-5.547 0-10.263 2.05-14.15 6.15-3.88 4.093-5.82 9.597-5.82 16.51 0 6.913 1.94 12.417 5.82 16.51 3.887 4.1 8.603 6.15 14.15 6.15zm61.69 10.75c-6.653 0-12.22-1.92-16.7-5.76-4.48-3.84-6.72-8.917-6.72-15.23 0-6.827 2.647-12.183 7.94-16.07 5.287-3.88 11.813-5.82 19.58-5.82 6.913 0 12.587 1.28 17.02 3.84v-1.79c0-4.613-1.577-8.307-4.73-11.08-3.16-2.773-7.043-4.16-11.65-4.16-3.413 0-6.507.813-9.28 2.44-2.773 1.62-4.673 3.837-5.7 6.65l-10.75-4.61c1.453-3.753 4.313-7.23 8.58-10.43 4.267-3.2 9.897-4.8 16.89-4.8 8.027 0 14.683 2.347 19.97 7.04 5.293 4.693 7.94 11.307 7.94 19.84V272h-11.27v-8.7h-.51c-4.693 7.167-11.563 10.75-20.61 10.75zm1.92-10.75c4.867 0 9.283-1.813 13.25-5.44 3.967-3.627 5.95-7.917 5.95-12.87-3.327-2.727-8.317-4.09-14.97-4.09-5.72 0-10.03 1.237-12.93 3.71-2.9 2.473-4.35 5.373-4.35 8.7 0 3.073 1.323 5.507 3.97 7.3 2.64 1.793 5.667 2.69 9.08 2.69zm65.16 10.75c-7 0-12.783-1.707-17.35-5.12-4.567-3.413-7.917-7.68-10.05-12.8l10.5-4.35c3.327 7.847 9 11.77 17.02 11.77 3.673 0 6.683-.81 9.03-2.43 2.347-1.62 3.52-3.753 3.52-6.4 0-4.093-2.86-6.867-8.58-8.32l-12.67-3.07c-4.013-1.027-7.81-2.97-11.39-5.83-3.587-2.853-5.38-6.713-5.38-11.58 0-5.547 2.453-10.047 7.36-13.5 4.907-3.46 10.73-5.19 17.47-5.19 5.547 0 10.497 1.26 14.85 3.78 4.353 2.513 7.47 6.117 9.35 10.81l-10.24 4.23c-2.307-5.547-7.087-8.32-14.34-8.32-3.5 0-6.443.723-8.83 2.17-2.393 1.453-3.59 3.417-3.59 5.89 0 3.587 2.773 6.02 8.32 7.3l12.42 2.94c5.887 1.367 10.24 3.713 13.06 7.04 2.813 3.327 4.22 7.083 4.22 11.27 0 5.627-2.303 10.32-6.91 14.08-4.607 3.753-10.537 5.63-17.79 5.63zm64 0c-9.473 0-17.177-3.157-23.11-9.47-5.927-6.32-8.89-14.3-8.89-23.94 0-9.133 2.88-16.983 8.64-23.55 5.76-6.573 13.12-9.86 22.08-9.86 9.3 0 16.743 3.03 22.33 9.09 5.593 6.06 8.39 14.167 8.39 24.32l-.13 2.18h-49.54c.34 6.313 2.453 11.303 6.34 14.97 3.88 3.673 8.423 5.51 13.63 5.51 8.447 0 14.163-3.587 17.15-10.76l10.5 4.36c-2.047 4.86-5.417 8.933-10.11 12.22-4.693 3.287-10.453 4.93-17.28 4.93zm-19.46-40.96h36.35c-.253-3.587-1.897-7-4.93-10.24-3.027-3.247-7.527-4.87-13.5-4.87-4.353 0-8.13 1.367-11.33 4.1-3.2 2.733-5.397 6.403-6.59 11.01zM830.33 272h-13.05l34.56-91.65h13.31L899.71 272h-13.06l-8.83-24.83h-38.53zm27.91-77.18l-14.98 41.34h30.46l-14.97-41.34zm103.29 14.46V272h-11.26v-8.7h-.51c-1.793 2.987-4.527 5.523-8.2 7.61-3.667 2.093-7.547 3.14-11.64 3.14-7.853 0-13.807-2.39-17.86-7.17-4.053-4.78-6.08-11.18-6.08-19.2v-38.4h11.78v36.48c0 11.693 5.16 17.54 15.48 17.54 4.867 0 8.837-1.963 11.91-5.89 3.073-3.927 4.61-8.45 4.61-13.57v-34.56zm40.83 63.74c-6.567 0-11.58-1.747-15.04-5.24-3.453-3.5-5.18-8.45-5.18-14.85v-32.9h-11.01v-10.75h11.01v-19.2h11.78v19.2h15.36v10.75h-15.36v32c0 6.827 2.813 10.24 8.44 10.24 2.133 0 3.927-.34 5.38-1.02l4.1 10.11c-2.56 1.107-5.72 1.66-9.48 1.66zm16.9-92.67h11.78v28.93l-.52 8.7h.52c1.707-2.987 4.393-5.523 8.06-7.61 3.667-2.093 7.593-3.14 11.78-3.14 7.76 0 13.69 2.39 17.79 7.17 4.093 4.78 6.14 11.18 6.14 19.2V272h-11.77v-36.61c0-11.607-5.163-17.41-15.49-17.41-4.867 0-8.837 1.943-11.91 5.83-3.067 3.88-4.6 8.38-4.6 13.5V272h-11.78zm96.51 93.7c-9.473 0-17.173-3.157-23.1-9.47-5.933-6.32-8.9-14.3-8.9-23.94 0-9.133 2.88-16.983 8.64-23.55 5.76-6.573 13.12-9.86 22.08-9.86 9.3 0 16.747 3.03 22.34 9.09 5.587 6.06 8.38 14.167 8.38 24.32l-.13 2.18h-49.53c.34 6.313 2.45 11.303 6.33 14.97 3.887 3.673 8.433 5.51 13.64 5.51 8.447 0 14.163-3.587 17.15-10.76l10.49 4.36c-2.047 4.86-5.417 8.933-10.11 12.22-4.693 3.287-10.453 4.93-17.28 4.93zm-19.45-40.96h36.35c-.26-3.587-1.903-7-4.93-10.24-3.027-3.247-7.527-4.87-13.5-4.87-4.353 0-8.13 1.367-11.33 4.1-3.2 2.733-5.397 6.403-6.59 11.01zm58.36-23.81h11.27v8.7h.51c1.707-2.987 4.393-5.523 8.06-7.61 3.673-2.093 7.6-3.14 11.78-3.14 7.767 0 13.697 2.39 17.79 7.17 4.1 4.78 6.15 11.18 6.15 19.2V272h-11.78v-36.61c0-11.607-5.163-17.41-15.49-17.41-4.86 0-8.827 1.943-11.9 5.83-3.073 3.88-4.61 8.38-4.61 13.5V272h-11.78zm93.32 63.74c-6.573 0-11.587-1.747-15.04-5.24-3.46-3.5-5.19-8.45-5.19-14.85v-32.9h-11.01v-10.75h11.01v-19.2h11.78v19.2h15.36v10.75h-15.36v32c0 6.827 2.817 10.24 8.45 10.24 2.133 0 3.923-.34 5.37-1.02l4.1 10.11c-2.56 1.107-5.717 1.66-9.47 1.66zm29.69-79.48c-1.62 1.62-3.583 2.43-5.89 2.43-2.3 0-4.26-.81-5.88-2.43-1.627-1.627-2.44-3.59-2.44-5.89 0-2.307.813-4.27 2.44-5.89 1.62-1.62 3.58-2.43 5.88-2.43 2.307 0 4.27.81 5.89 2.43s2.43 3.583 2.43 5.89c0 2.3-.81 4.263-2.43 5.89zm0 15.74V272h-11.77v-62.72zm42.11 64.77c-9.387 0-17.107-3.18-23.16-9.54-6.06-6.353-9.09-14.31-9.09-23.87s3.03-17.517 9.09-23.87c6.053-6.36 13.773-9.54 23.16-9.54 7 0 12.803 1.707 17.41 5.12 4.607 3.413 7.977 7.723 10.11 12.93l-10.75 4.48c-3.24-7.853-9.083-11.78-17.53-11.78-5.207 0-9.793 2.133-13.76 6.4-3.973 4.267-5.96 9.687-5.96 16.26 0 6.573 1.987 11.993 5.96 16.26 3.967 4.267 8.553 6.4 13.76 6.4 8.787 0 14.843-3.927 18.17-11.78l10.5 4.48c-2.133 5.12-5.57 9.407-10.31 12.86-4.733 3.46-10.6 5.19-17.6 5.19zm57.35 0c-6.66 0-12.23-1.92-16.71-5.76s-6.72-8.917-6.72-15.23c0-6.827 2.647-12.183 7.94-16.07 5.293-3.88 11.82-5.82 19.58-5.82 6.913 0 12.59 1.28 17.03 3.84v-1.79c0-4.613-1.58-8.307-4.74-11.08-3.153-2.773-7.037-4.16-11.65-4.16-3.413 0-6.507.813-9.28 2.44-2.773 1.62-4.67 3.837-5.69 6.65l-10.75-4.61c1.447-3.753 4.303-7.23 8.57-10.43 4.267-3.2 9.9-4.8 16.9-4.8 8.02 0 14.677 2.347 19.97 7.04 5.287 4.693 7.93 11.307 7.93 19.84V272h-11.26v-8.7h-.51c-4.693 7.167-11.563 10.75-20.61 10.75zm1.92-10.75c4.86 0 9.277-1.813 13.25-5.44 3.967-3.627 5.95-7.917 5.95-12.87-3.327-2.727-8.32-4.09-14.98-4.09-5.713 0-10.023 1.237-12.93 3.71-2.9 2.473-4.35 5.373-4.35 8.7 0 3.073 1.323 5.507 3.97 7.3 2.647 1.793 5.677 2.69 9.09 2.69zm67.71 9.72c-6.573 0-11.587-1.747-15.04-5.24-3.453-3.5-5.18-8.45-5.18-14.85v-32.9h-11.01v-10.75h11.01v-19.2h11.77v19.2h15.36v10.75h-15.36v32c0 6.827 2.817 10.24 8.45 10.24 2.133 0 3.927-.34 5.38-1.02l4.09 10.11c-2.56 1.107-5.717 1.66-9.47 1.66zm29.7-79.48c-1.627 1.62-3.59 2.43-5.89 2.43-2.307 0-4.27-.81-5.89-2.43-1.62-1.627-2.43-3.59-2.43-5.89 0-2.307.81-4.27 2.43-5.89s3.583-2.43 5.89-2.43c2.3 0 4.263.81 5.89 2.43 1.62 1.62 2.43 3.583 2.43 5.89 0 2.3-.81 4.263-2.43 5.89zm0 15.74V272h-11.78v-62.72zm18.94 7.49c6.06-6.36 13.783-9.54 23.17-9.54 9.387 0 17.11 3.18 23.17 9.54 6.053 6.353 9.08 14.31 9.08 23.87s-3.027 17.517-9.08 23.87c-6.06 6.36-13.783 9.54-23.17 9.54-9.387 0-17.11-3.18-23.17-9.54-6.06-6.353-9.09-14.31-9.09-23.87s3.03-17.517 9.09-23.87zm8.77 40.32c4.053 4.14 8.853 6.21 14.4 6.21 5.547 0 10.347-2.07 14.4-6.21 4.053-4.14 6.08-9.623 6.08-16.45s-2.027-12.31-6.08-16.45c-4.053-4.14-8.853-6.21-14.4-6.21-5.547 0-10.347 2.07-14.4 6.21-4.053 4.14-6.08 9.623-6.08 16.45s2.027 12.31 6.08 16.45zm56.13-47.81h11.26v8.7h.51c1.707-2.987 4.397-5.523 8.07-7.61 3.667-2.093 7.59-3.14 11.77-3.14 7.767 0 13.697 2.39 17.79 7.17 4.1 4.78 6.15 11.18 6.15 19.2V272h-11.78v-36.61c0-11.607-5.163-17.41-15.49-17.41-4.86 0-8.827 1.943-11.9 5.83-3.073 3.88-4.61 8.38-4.61 13.5V272h-11.77z" fill-opacity=".54" fill="#000"/>
  </g>
</svg>
