<svg width="1000" height="256" viewBox="0 0 1000 256" fill="none" xmlns="http://www.w3.org/2000/svg">
<path d="M309.352 72.6035H279.518V104H270.143V32.9062H314.186V40.6211H279.518V64.9375H309.352V72.6035ZM333.814 104H324.781V29H333.814V104ZM380.934 98.7754C377.418 102.91 372.258 104.977 365.455 104.977C359.824 104.977 355.527 103.349 352.564 100.094C349.635 96.806 348.154 91.9557 348.121 85.543V51.168H357.154V85.2988C357.154 93.3066 360.41 97.3105 366.92 97.3105C373.821 97.3105 378.411 94.7389 380.689 89.5957V51.168H389.723V104H381.129L380.934 98.7754ZM415.748 38.375V51.168H425.611V58.1504H415.748V90.9141C415.748 93.0299 416.188 94.625 417.066 95.6992C417.945 96.7409 419.443 97.2617 421.559 97.2617C422.6 97.2617 424.033 97.0664 425.855 96.6758V104C423.479 104.651 421.168 104.977 418.922 104.977C414.885 104.977 411.842 103.756 409.791 101.314C407.74 98.873 406.715 95.4062 406.715 90.9141V58.1504H397.096V51.168H406.715V38.375H415.748ZM448.463 38.375V51.168H458.326V58.1504H448.463V90.9141C448.463 93.0299 448.902 94.625 449.781 95.6992C450.66 96.7409 452.158 97.2617 454.273 97.2617C455.315 97.2617 456.747 97.0664 458.57 96.6758V104C456.194 104.651 453.883 104.977 451.637 104.977C447.6 104.977 444.557 103.756 442.506 101.314C440.455 98.873 439.43 95.4062 439.43 90.9141V58.1504H429.811V51.168H439.43V38.375H448.463ZM490.846 104.977C483.684 104.977 477.857 102.633 473.365 97.9453C468.873 93.2253 466.627 86.9264 466.627 79.0488V77.3887C466.627 72.1478 467.62 67.4766 469.605 63.375C471.624 59.2409 474.423 56.0182 478.004 53.707C481.617 51.3633 485.523 50.1914 489.723 50.1914C496.591 50.1914 501.93 52.4538 505.738 56.9785C509.547 61.5033 511.451 67.9811 511.451 76.4121V80.1719H475.66C475.79 85.3802 477.304 89.5957 480.201 92.8184C483.131 96.0085 486.842 97.6035 491.334 97.6035C494.524 97.6035 497.226 96.9525 499.439 95.6504C501.653 94.3483 503.59 92.623 505.25 90.4746L510.768 94.7715C506.34 101.575 499.7 104.977 490.846 104.977ZM489.723 57.6133C486.077 57.6133 483.017 58.9479 480.543 61.6172C478.069 64.2539 476.539 67.9648 475.953 72.75H502.418V72.0664C502.158 67.4766 500.921 63.9284 498.707 61.4219C496.493 58.8828 493.499 57.6133 489.723 57.6133ZM547.486 59.2734C546.119 59.0456 544.638 58.9316 543.043 58.9316C537.118 58.9316 533.098 61.4544 530.982 66.5V104H521.949V51.168H530.738L530.885 57.2715C533.847 52.5514 538.046 50.1914 543.482 50.1914C545.24 50.1914 546.575 50.4193 547.486 50.875V59.2734ZM556.9 38.2L557.8 46.9C568.6 44.6 594.1 42.2 604.8 41C595.6 46.5 586.1 59.2 586.1 74.8C586.1 97.1 607.2 107 625.7 107.7L628.6 99.4C612.3 98.8 594.1 92.6 594.1 73.1C594.1 61.2 602.8 46 617 41.4C622.1 39.9 630.9 39.8 636.6 39.8V31.8C629.9 32.1 620.5 32.7 609.6 33.6C591.2 35.1 572.3 37 565.8 37.7C563.9 37.9 560.7 38.1 556.9 38.2ZM622.2 52.1L617.1 54.3C620.1 58.4 623 63.6 625.3 68.4L630.4 66C628.3 61.6 624.5 55.4 622.2 52.1ZM633.1 47.9L628.2 50.2C631.3 54.4 634.2 59.3 636.6 64.2L641.8 61.7C639.5 57.3 635.5 51.2 633.1 47.9ZM692 62C703.8 61.3 720.5 60 736.7 58.8C738 61.4 739 63.8 739.7 65.9L746.1 62.3C743.5 55 736.6 44 730 35.7L724.1 38.7C727.3 42.8 730.5 47.6 733.2 52.3C723.9 52.9 714.6 53.5 706.4 54C710.6 44.7 715.2 32.2 718.7 22L710.6 20.3C708 30.6 703.3 44.7 699.1 54.4L691.2 54.8L692 62ZM683.1 47.8C681.8 60.8 679.2 71.8 675.5 80.7C671.7 78 667.6 75.5 663.8 73.3C665.8 65.5 668 56.7 670.1 47.8H683.1ZM686.2 40.7L684.9 40.9H671.6C673.2 34 674.7 27.2 675.9 21.1L668.8 20.3C667.6 26.5 666.2 33.6 664.6 40.9H653.7V47.8H663.1C660.2 60.2 657.2 72.5 654.7 81L660.9 84.3L662.1 80C665.5 82.1 669.1 84.6 672.4 87.1C667.7 95.8 661.6 102.1 654.3 105.9C655.9 107.4 657.8 110.1 658.9 111.9C666.7 107.2 673.1 100.6 678.2 91.7C682.4 95.2 686 98.7 688.5 101.8L693 95.9C690.3 92.6 686.2 88.8 681.4 85.1C686.3 74 689.4 59.7 690.7 41.6L686.2 40.7ZM733 78.2V100.5H705.1V78.2H733ZM698 111.7H705.1V107.2H733V111.3H740.4V71.4H698V111.7ZM815.9 26.6L807.3 25.8C807.3 28.1 807 31.4 806.7 33.4C806.3 35.8 805.7 38.2 805.1 40.7C796.4 40.8 787.9 42.8 779.4 47.8C778.5 45 777.6 42.3 777 40C776.3 37.2 775.5 33.9 775 31.1L766.7 33.8C767.9 36.4 769.1 39.7 770 42.8C770.9 45.8 771.9 48.9 773 52C763.9 59.4 757.6 71.5 757.6 83C757.6 94.7 763.9 101 771.5 101C779 101 785.1 96 791.3 88.5C792.8 90.6 794.4 92.5 796 94.3L802.3 89.1C800.2 87.1 798.1 84.7 796.1 82.1C801.8 73.9 806.9 60.8 810.7 48.1C823.6 50.3 831.7 60.1 831.7 73.1C831.7 88.5 820.1 99.5 799.2 101.3L803.9 108.4C825.3 105.4 839.6 93.3 839.6 73.4C839.6 56.2 828.6 43.9 812.6 41.3C813.2 38.9 813.7 36.6 814.2 34.4C814.6 32.5 815.2 29.1 815.9 26.6ZM764.8 82.4C764.8 74.6 769 65.4 775.6 59.2C778.5 66.8 781.7 73.9 784.6 78.4C785.4 79.7 786.1 81 786.9 82.2C782.5 88.1 777.2 93.1 772.3 93.1C767.8 93.1 764.8 89 764.8 82.4ZM789.5 72.1C787.1 68.1 784.2 61.4 781.7 54.5C788.3 50.4 795.4 48 803.2 47.6C800.1 57.9 795.8 68.3 791.5 75.4C790.8 74.3 790.1 73.2 789.5 72.1ZM885.6 93.5C885.6 90 889.1 87.1 893.6 87.1C901.2 87.1 906.2 92.8 907 100.7C904.5 101.1 901.8 101.3 898.9 101.3C891.1 101.3 885.6 98.3 885.6 93.5ZM872.8 30.3L873.1 38.6C875.2 38.3 877.5 38.1 879.7 38C885 37.7 905 36.8 910.3 36.6C905.2 41.1 892.7 51.6 887.1 56.2C881.3 61.1 868.5 71.8 860.2 78.6L865.9 84.5C878.6 71.6 887.5 64.5 904.2 64.5C917.2 64.5 926.6 71.9 926.6 81.7C926.6 89.9 922.1 95.7 914.1 98.8C912.9 89.3 906.2 81.1 893.7 81.1C884.4 81.1 878.3 87.2 878.3 94.1C878.3 102.4 886.6 108.3 900.2 108.3C921.4 108.3 934.6 97.9 934.6 81.8C934.6 68.3 922.7 58.3 906.1 58.3C901.6 58.3 896.8 58.8 892.2 60.4C900 53.9 913.6 42.3 918.6 38.5C920.4 37 922.4 35.7 924.2 34.4L919.6 28.6C918.6 28.9 917.2 29.2 914.2 29.4C908.9 29.9 885.1 30.7 879.9 30.7C877.9 30.7 875.1 30.6 872.8 30.3ZM542.1 153.4L537.2 148.7C535.7 149 532.1 149.3 530.2 149.3H472.8C469.1 149.3 464.9 148.9 461.4 148.4V157.5C465.3 157.1 469.1 156.9 472.8 156.9H529.8C526.5 163.1 517.1 174 507.9 179.3L514.5 184.6C525.9 176.7 535.4 163.8 539.4 157C540.1 155.9 541.4 154.4 542.1 153.4ZM502.2 166.6H493.2C493.5 169.2 493.6 171.4 493.6 173.8C493.6 190.5 491.4 204.7 475.9 214.2C473.1 216.2 469.7 217.8 466.9 218.7L474.3 224.7C499.8 212 502.2 193.7 502.2 166.6ZM629.5 149.2C629.5 145.5 632.5 142.5 636.1 142.5C639.8 142.5 642.8 145.5 642.8 149.2C642.8 152.8 639.8 155.8 636.1 155.8C632.5 155.8 629.5 152.8 629.5 149.2ZM624.9 149.2C624.9 150.3 625.1 151.4 625.4 152.4C624.2 152.5 623.1 152.5 622.2 152.5H572C568.7 152.5 564.8 152.2 562 151.8V160.7C564.6 160.6 568 160.4 572 160.4H623.1C621.8 170 617.1 183.9 610 193C601.7 203.7 590.4 212.2 571 217L577.8 224.5C596.2 218.8 608.1 209.5 617.2 197.8C625.1 187.5 630 171.4 632.1 160.9C632.2 160.5 632.3 160.1 632.3 159.8C633.5 160.2 634.8 160.4 636.1 160.4C642.3 160.4 647.4 155.4 647.4 149.2C647.4 143 642.3 137.9 636.1 137.9C629.9 137.9 624.9 143 624.9 149.2ZM726.6 145.1H717.2C717.5 147.6 717.7 150.4 717.7 153.8V169.6C717.7 188.5 716.5 196.6 709.4 204.9C703.2 211.9 694.7 215.9 685.5 218.2L692 225.1C699.3 222.6 709.3 218.3 715.8 210.5C723 201.9 726.3 194 726.3 170V153.8C726.3 150.4 726.4 147.6 726.6 145.1ZM680.2 145.9H671.1C671.3 147.8 671.5 151.3 671.5 153.1V186.4C671.5 189.4 671.2 192.6 671 194.1H680.2C680 192.3 679.8 189 679.8 186.5V153.1C679.8 150.7 680 147.8 680.2 145.9ZM787.4 147.3V155.4H765.5V147.3H787.4ZM765.5 169.3V160.7H787.4V169.3H765.5ZM794.4 175V141.6H758.2V228.7H765.5V175H794.4ZM791.6 198.2V187.4H805.6V198.2H791.6ZM825.8 204.5V198.2H812.2V187.4H823.6V181.3H774.3V187.4H785.1V198.2H772.4V204.5H784.9C784.3 210.3 781.5 218.6 773.1 223.7C774.7 224.7 776.9 226.8 778 228.1C787.6 221.6 790.8 211.2 791.4 204.5H805.6V226.8H812.2V204.5H825.8ZM810.3 169.4V160.7H833V169.4H810.3ZM833 147.3V155.4H810.3V147.3H833ZM840.3 141.6H803.2V175.1H833V218.9C833 220.5 832.5 221.1 830.9 221.1C829.4 221.2 824 221.2 818.5 221C819.6 223 820.7 226.5 820.9 228.4C828.4 228.5 833.4 228.3 836.4 227.1C839.3 225.8 840.3 223.4 840.3 219V141.6ZM907.1 194.5H889.7V193V179.6H907.1V194.5ZM926.3 179.6V175.8C930.7 179.3 935.5 182.3 940.6 184.5C941.7 182.6 944.1 179.7 945.7 178.3C938.9 175.6 932.6 171.6 927 166.7C932.1 163 938.1 158.2 942.7 153.8L937.1 149.8C933.6 153.6 927.8 158.9 922.8 162.7C920.5 160.3 918.3 157.7 916.3 155C921.1 151.5 926.6 146.8 931 142.4L925.4 138.4C922.3 141.9 917.5 146.6 913.1 150.3C910.6 146.3 908.5 142.1 906.8 137.7L900.4 139.6C905.4 152.5 913 164 922.7 172.7H875.7C884.6 165.2 892.2 155.4 896.5 143.7L891.6 141.3L890.3 141.6H861.8V148.2H886.6C884.1 152.9 880.9 157.3 877.3 161.4C874.1 158.4 869.2 154.5 865.2 151.6L860.6 155.5C864.7 158.6 869.6 162.8 872.6 166C866.4 171.7 859.2 176.2 852.3 179C853.7 180.4 855.9 183 856.9 184.6C861.9 182.3 867 179.4 871.8 175.8V179.6H882.3V192.9V194.5H859.3V201.4H881.5C879.7 209.7 874 217.6 857.3 223.2C858.8 224.6 861.1 227.4 862 229.1C881.6 222.3 887.5 212.1 889.1 201.4H907.1V217.4C907.1 225.6 909.3 227.8 917.7 227.8H930.8C938.1 227.8 940.2 224.3 940.9 211.6C938.9 211.1 935.8 209.8 934.2 208.5C933.8 219.2 933.3 221.2 930.2 221.2H918.8C915.4 221.2 914.8 220.6 914.8 217.5V201.4H938.5V194.5H914.8V179.6H926.3Z" fill="#5F5F5F"/>
<rect x="43" y="137.744" width="175" height="36" rx="18" transform="rotate(-45 43 137.744)" fill="#54C5F8"/>
<rect x="82.5979" y="177.342" width="125" height="36" rx="18" transform="rotate(-45 82.5979 177.342)" fill="#54C5F8"/>
<rect x="122.196" y="216.94" width="36" height="36" rx="18" transform="rotate(-45 122.196 216.94)" fill="#01579B"/>
</svg>
